<svg fill="#7a858d" viewBox="0 0 32 32" xmlns="http://www.w3.org/2000/svg"><path d="M28.093 19.218c-0.41 0-0.82 0.071-1.206 0.19l-0.482-0.926c0.531-0.19 1.109-0.285 1.664-0.285 0.675 0 1.35 0.142 1.977 0.404 0.289 0.119 0.627 0 0.748-0.285 0.072-0.142 0.072-0.285 0-0.427-0.048-0.142-0.169-0.261-0.313-0.309-0.772-0.332-1.592-0.499-2.436-0.499-0.748 0-1.495 0.142-2.194 0.404l-1.833-3.61c0.048 0 0.121 0 0.169 0h1.109c0.313 0 0.579-0.261 0.579-0.57v-2.161c0-0.309-0.265-0.57-0.579-0.57h-1.109c-0.603 0-1.133 0.309-1.447 0.807l-0.482-0.974c-0.289-0.57-0.868-0.902-1.495-0.902h-0.965c-0.313 0-0.579 0.261-0.579 0.57s0.265 0.57 0.579 0.57h0.965c0.193 0 0.386 0.119 0.458 0.285l1.302 2.588-0.193 0.095c-0.579 0.285-0.916 0.855-0.916 1.472v5.272h-4.316c-0.892 0-1.616-0.712-1.616-1.591v-2.137c0.916-0.024 1.64-0.76 1.64-1.662s-0.748-1.662-1.688-1.662h-4.389c-0.386 0-0.772 0.142-1.085 0.38v-7.433c0-0.617-0.506-1.116-1.133-1.116h-7.693c-0.627 0-1.133 0.499-1.133 1.116v7.575c0 0.617 0.506 1.116 1.133 1.116h1.085c-0.024 0.095-0.024 0.166-0.024 0.261 0.024 0.76 0.651 1.354 1.399 1.354h2.58c-0.265 0.166-0.506 0.356-0.723 0.57-1.157 1.021-1.76 2.232-1.953 3.040-0.096 0.451 0 0.902 0.289 1.259s0.699 0.546 1.158 0.546h0.193c-0.096 0.356-0.145 0.712-0.145 1.069 0 2.113 1.736 3.823 3.882 3.823 1.905 0 3.545-1.401 3.834-3.253h9.887c0.313 0 0.579-0.261 0.579-0.57 0-0.332 0.024-0.665 0.096-0.974 0.265-1.259 1.037-2.375 2.122-3.087l0.482 0.926c-1.037 0.712-1.64 1.876-1.64 3.111 0 2.113 1.736 3.823 3.882 3.823s3.882-1.71 3.882-3.823c-0.024-2.066-1.76-3.799-3.907-3.799zM30.818 23.041c0 1.472-1.23 2.683-2.725 2.683s-2.725-1.211-2.725-2.683c0-1.472 1.23-2.683 2.725-2.683s2.725 1.211 2.725 2.683zM7.162 23.041c0 0.902 0.748 1.662 1.688 1.662s1.688-0.736 1.688-1.662c0-0.404-0.145-0.76-0.41-1.069h1.23c0.145 0.332 0.217 0.712 0.217 1.069 0 1.472-1.23 2.683-2.725 2.683s-2.725-1.211-2.725-2.683c0-0.356 0.072-0.736 0.217-1.069h1.23c-0.265 0.309-0.41 0.689-0.41 1.069zM8.319 23.041c0-0.285 0.241-0.522 0.531-0.522s0.531 0.237 0.531 0.522c0 0.285-0.241 0.522-0.531 0.522s-0.531-0.237-0.531-0.522zM8.826 8.437v5.367h-7.668v-5.367h7.668zM1.157 7.297v-1.021h7.644v1.021h-7.644zM3.424 15.014c0.024-0.024 0.072-0.047 0.096-0.071h5.836c0 0.166 0.024 0.332 0.072 0.499h-5.836c-0.145 0-0.241-0.119-0.265-0.237 0.024-0.095 0.048-0.142 0.096-0.19zM4.919 20.904v-0.047c-0.145 0-0.217-0.071-0.265-0.119-0.072-0.071-0.096-0.19-0.072-0.285 0.386-1.567 2.339-3.871 5.329-3.871 2.315 0 3.183 2.185 3.183 3.562 0 0.356-0.193 0.712-0.555 0.712l-7.644 0.024 0.024 0.024zM15.433 15.442h-4.389c-0.289 0-0.531-0.237-0.531-0.522s0.241-0.522 0.531-0.522h4.413c0.289 0 0.531 0.237 0.531 0.522-0.024 0.285-0.265 0.522-0.555 0.522zM12.564 21.972c0.965 0 1.712-0.784 1.712-1.852 0-1.116-0.386-2.232-1.037-3.087-0.121-0.166-0.265-0.332-0.41-0.475h1.495v2.137c0 1.52 1.254 2.731 2.773 2.731h4.944c0.072 0 0.145-0.024 0.217-0.047-0.048 0.142-0.072 0.285-0.121 0.451-0.048 0.214-0.072 0.427-0.096 0.617h-9.356c-0.024-0.142-0.072-0.309-0.121-0.475v0zM24.886 17.983c-0.989 0.617-1.76 1.449-2.267 2.47v-5.414c0-0.19 0.121-0.38 0.289-0.451l0.193-0.095 1.784 3.491zM23.729 12.212c0-0.285 0.241-0.522 0.531-0.522h0.531v1.021h-0.531c-0.289 0.024-0.531-0.214-0.531-0.499z" /><path d="M28.093 21.402c-0.916 0-1.688 0.736-1.688 1.662 0 0.902 0.748 1.662 1.688 1.662s1.688-0.736 1.688-1.662c0-0.926-0.748-1.662-1.688-1.662zM28.624 23.041c0 0.285-0.241 0.522-0.531 0.522s-0.531-0.237-0.531-0.522c0-0.285 0.241-0.522 0.531-0.522s0.531 0.237 0.531 0.522z" /></svg>
